<?xml version="1.0" encoding="utf-8"?>
<!-- Generator: Adobe Illustrator 19.2.1, SVG Export Plug-In . SVG Version: 6.00 Build 0)  -->
<svg version="1.1" id="Capa_1" xmlns="http://www.w3.org/2000/svg" xmlns:xlink="http://www.w3.org/1999/xlink" x="0px" y="0px"
	 viewBox="0 0 730 267" style="enable-background:new 0 0 730 267;" xml:space="preserve">
<style type="text/css">
	.st0{fill:url(#SVGID_1_);}
	.st1{fill:#0F0F0F;}
	.st2{fill:none;stroke:#000000;stroke-width:25;stroke-linecap:round;stroke-linejoin:round;}
	.st3{fill:none;}
	.st4{fill:url(#SVGID_2_);}
	.st5{fill:url(#SVGID_3_);}
	.st6{fill:url(#SVGID_4_);}
	.st7{fill:url(#SVGID_5_);}
	.st8{fill:url(#SVGID_6_);}
	.st9{fill:url(#SVGID_7_);}
	.st10{fill:url(#SVGID_8_);}
	.st11{fill:url(#SVGID_9_);stroke:#000000;stroke-miterlimit:10;}
	.st12{fill:url(#SVGID_10_);}
	.st13{fill:url(#SVGID_11_);}
	.st14{fill:url(#SVGID_12_);}
	.st15{fill:url(#SVGID_13_);}
	.st16{fill:url(#SVGID_14_);}
	.st17{fill:url(#SVGID_15_);}
	.st18{fill:url(#SVGID_16_);stroke:#000000;stroke-miterlimit:10;}
	.st19{fill:url(#SVGID_17_);}
	.st20{fill:url(#SVGID_18_);}
	.st21{fill:url(#SVGID_19_);}
	.st22{fill:url(#SVGID_20_);}
	.st23{fill:url(#SVGID_21_);}
	.st24{fill:url(#SVGID_22_);}
	.st25{fill:url(#SVGID_23_);}
	.st26{fill:url(#SVGID_24_);}
	.st27{fill:url(#SVGID_25_);}
	.st28{fill:url(#SVGID_26_);}
	.st29{fill:url(#SVGID_27_);}
	.st30{fill:url(#SVGID_28_);}
	.st31{fill:url(#SVGID_29_);}
	.st32{fill:url(#SVGID_30_);}
	.st33{fill:url(#SVGID_31_);}
	.st34{fill:url(#SVGID_32_);}
	.st35{fill:url(#SVGID_33_);}
	.st36{fill:url(#SVGID_34_);}
	.st37{fill:url(#SVGID_35_);}
	.st38{fill:url(#SVGID_36_);}
	.st39{fill:url(#SVGID_37_);}
	.st40{fill:url(#SVGID_38_);stroke:#000000;stroke-miterlimit:10;}
	.st41{fill:url(#SVGID_39_);}
	.st42{fill:url(#SVGID_40_);}
	.st43{fill:url(#SVGID_41_);}
	.st44{fill:url(#SVGID_42_);}
	.st45{fill:url(#SVGID_43_);}
	.st46{fill:url(#SVGID_44_);}
	.st47{fill:url(#SVGID_45_);}
	.st48{fill:url(#SVGID_46_);}
	.st49{fill:url(#SVGID_47_);}
	.st50{fill:url(#SVGID_48_);}
	.st51{fill:url(#SVGID_49_);}
	.st52{fill:url(#SVGID_50_);}
	.st53{fill:url(#SVGID_51_);}
	.st54{fill:url(#SVGID_52_);}
</style>
<g>
	<linearGradient id="SVGID_1_" gradientUnits="userSpaceOnUse" x1="45.3732" y1="65.3218" x2="135.9048" y2="204.73">
		<stop  offset="0" style="stop-color:#F05FB1"/>
		<stop  offset="1" style="stop-color:#9200CB"/>
	</linearGradient>
	<path class="st0" d="M74.7,88.6c-1.8,2.1-4,5.4-3.4,9.4c0.6,4.3,4.2,7.7,9.4,10.6c-11.2-5.4-44.1-23.3-33.2-41.5
		c0.4-0.5,0.7-0.9,1.1-1.4c1.7-2,3.5-3.8,5.4-5.5c18.1-11.5,42.9,19.8,47,25.1c-4.1-2.1-8.7-3.2-13.1-3.2c-2.7,0-5.2,0.6-7.4,1.7
		C78.4,85,76.4,86.6,74.7,88.6z M103.5,155.6c3.1,2.1,5.1,4.5,6.1,7.3c2.1,5.5,2,10.1-0.5,13.7c-3.1,4.7-9.7,7.6-17.2,7.6
		c-5.9,0-10.8-1.4-14.9-4.3c0,0,28.8,40.5,51.7,26.1c2.8-2.4,5.3-5.1,7.5-8.1C144.3,180.1,107.9,158.1,103.5,155.6z"/>
	<linearGradient id="SVGID_2_" gradientUnits="userSpaceOnUse" x1="34.4851" y1="83.4966" x2="141.1561" y2="179.0253">
		<stop  offset="0" style="stop-color:#FA7DCF"/>
		<stop  offset="1" style="stop-color:#B01EE9"/>
	</linearGradient>
	<path class="st4" d="M133.8,96c-7.5,5.8-18,4.3-23.7-3.3c-2.3-3.1-5.4-5.6-8.9-7.3c-4-5.3-28.9-36.3-47-24.8
		C63.5,52.4,75.5,48,87.5,48c0,0,0,0,0,0c19.9,0,38,8.5,49.5,23.9C142.8,79.5,141.3,90.2,133.8,96z M141.6,150.2
		c-8.3-21.4-28.1-29.9-42.4-34.3c-6.8-2.1-13.3-4.4-18.4-7.2c0,0,0,0,0,0c-11.2-5.4-44.1-23.3-33.2-41.5
		c-8.4,10.4-12,22.8-10.3,35.5c4.2,31.6,36.3,41.7,51.8,46.5c6.3,2,10.9,4,14.3,6.3c0.1,0,0.1,0.1,0.2,0.1c0,0,0,0,0,0
		c4.4,2.5,40.8,24.5,32.8,42.4c0.4-0.6,0.8-1.1,1.2-1.7C146.4,182.9,147.9,166.6,141.6,150.2z M77.1,180c-2.6-1.8-4.9-4.3-7-7.4
		c-5.3-7.9-16-10-23.8-4.5c-7.8,5.4-9.8,16.3-4.5,24.2c11.8,17.6,29.1,26.8,50.1,26.8c14.1,0,27.2-4.7,36.9-13.1
		C105.9,220.5,77.1,180,77.1,180z"/>
	<linearGradient id="SVGID_3_" gradientUnits="userSpaceOnUse" x1="189.7936" y1="98.4281" x2="234.4772" y2="217.4091">
		<stop  offset="0" style="stop-color:#FA7DCF"/>
		<stop  offset="1" style="stop-color:#B01EE9"/>
	</linearGradient>
	<path class="st5" d="M216.8,179.6l-8.5,27.1c-2.3,7.2-8.9,12.3-16.3,12.3H192c-7.5,0-14.1-5.2-16.3-12.4l-27-88.3
		c-2.8-9.2,2.2-19,11.2-21.9c9-2.9,18.6,2.2,21.4,11.4l10.8,35.4l10.8,33.4C203,176.7,210.2,198.3,216.8,179.6z M262.4,178.6
		L248.5,143l-13-35.3c-2.6-7-9.2-11.5-16.4-11.3c-7.3,0.2-13.7,5-15.9,12.1l-6.2,19.7c5.5-11.5,11.1,2.7,11.1,2.7l12.7,36l15.1,40.8
		c2.5,6.8,8.9,11.3,16,11.3c0.3,0,0.7,0,1,0c7.5-0.4,13.8-5.8,15.6-13.2l6.4-26.4C269.5,196.6,262.4,178.6,262.4,178.6z"/>
	<linearGradient id="SVGID_4_" gradientUnits="userSpaceOnUse" x1="230.3101" y1="60.9991" x2="281.324" y2="191.7719">
		<stop  offset="0" style="stop-color:#F05FB1"/>
		<stop  offset="1" style="stop-color:#9200CB"/>
	</linearGradient>
	<path class="st6" d="M220.8,166.9l-3.1,9.8l-0.8,2.7c0,0.1,0,0.1-0.1,0.2c-6.6,18.7-13.8-2.9-13.8-2.9l-10.8-33.4l3.7-11.8l1-3.3
		c0,0,0,0,0,0c5.5-11.5,11.1,2.7,11.1,2.7L220.8,166.9z M290,48c-9.2-2.3-18.5,3.4-20.7,12.7L248.5,143l13.8,35.6
		c0,0,7.1,18.1,12.6,0.8c0,0,0-0.1,0-0.1l0.2-0.8l27.4-109.4C304.8,59.8,299.2,50.4,290,48z"/>
</g>
<linearGradient id="SVGID_5_" gradientUnits="userSpaceOnUse" x1="513.1191" y1="46.3683" x2="513.1191" y2="221.3429">
	<stop  offset="0" style="stop-color:#FA7DCF"/>
	<stop  offset="0.4682" style="stop-color:#D751DB"/>
	<stop  offset="1" style="stop-color:#B01EE9"/>
</linearGradient>
<path class="st7" d="M333,109.7l15.7-9.1c2.8,6.6,7.7,11,16.7,11c8.6,0,10.8-3.4,10.8-6.5c0-4.9-4.5-6.8-16.5-10.1
	c-11.8-3.3-23.4-9-23.4-24.2c0-15.3,12.9-24.2,26.7-24.2c13.1,0,23.3,6.2,29.1,17.9l-15.3,9c-2.7-5.7-6.5-9.2-13.7-9.2
	c-5.7,0-8.5,2.8-8.5,6c0,3.6,1.9,6.1,14.3,9.9c12,3.6,25.5,7.8,25.5,24.6c0,15.3-12.3,24.4-29.5,24.4
	C348.1,129.4,337.4,121.4,333,109.7z M462.7,71v56.7h-17v-5.3c-3.7,4.3-9.3,6.9-16.9,6.9c-14.9,0-27.1-13.1-27.1-30
	c0-16.9,12.3-30,27.1-30c7.6,0,13.2,2.6,16.9,6.9V71H462.7z M445.7,99.4c0-8.5-5.7-13.8-13.5-13.8s-13.5,5.3-13.5,13.8
	s5.7,13.8,13.5,13.8S445.7,107.9,445.7,99.4z M529.7,93v34.8h-17V95.4c0-7-4.4-10.3-9.9-10.3c-6.2,0-10.6,3.6-10.6,11.7v31h-17V71
	h17v5.3c3.1-4.2,8.7-6.9,16.2-6.9C519.9,69.5,529.7,77.6,529.7,93z M599.6,71V125c0,19.1-14.9,27.1-30,27.1
	c-11.8,0-21.7-4.4-26.9-13.7l14.5-8.4c2.2,4,5.4,7.2,12.9,7.2c7.9,0,12.8-4.1,12.8-12.1v-5.2c-3.7,4.7-9.2,7.4-16.6,7.4
	c-16.1,0-27.9-13.2-27.9-28.8s11.8-28.8,27.9-28.8c7.4,0,12.8,2.7,16.6,7.4V71H599.6z M583,98.3c0-7.8-5.7-13.2-13.7-13.2
	c-8.1,0-13.7,5.3-13.7,13.2s5.7,13.2,13.7,13.2C577.4,111.5,583,106.1,583,98.3z M640.9,114.2c4.7,0,8.6-1.8,10.9-4.3l13.6,7.8
	c-5.6,7.7-14,11.7-24.7,11.7c-19.4,0-31.4-13.1-31.4-30c0-16.9,12.3-30,30.2-30c16.6,0,28.8,12.8,28.8,30c0,2.4-0.2,4.7-0.7,6.8
	h-40.3C629.5,112.1,634.7,114.2,640.9,114.2z M651.4,93.5c-1.8-6.6-6.9-9-12-9c-6.5,0-10.8,3.2-12.4,9H651.4z M677.9,44.9h17v82.9
	h-17V44.9z M331.3,139.4h19.1l13.7,55.6l15.3-55.6h14.8l15.3,55.6l13.7-55.6h19.1l-21.9,79.4h-20.7l-12.9-46.9l-12.9,46.9h-20.7
	L331.3,139.4z M471.7,205.2c4.7,0,8.6-1.8,10.9-4.3l13.6,7.8c-5.6,7.7-14,11.7-24.7,11.7c-19.4,0-31.4-13.1-31.4-30
	c0-16.9,12.3-30,30.2-30c16.6,0,28.8,12.8,28.8,30c0,2.4-0.2,4.7-0.7,6.8h-40.3C460.2,203.1,465.5,205.2,471.7,205.2z M482.1,184.5
	c-1.8-6.6-6.9-9-12-9c-6.5,0-10.8,3.2-12.4,9H482.1z M569.8,190.4c0,16.9-12.3,30-27.1,30c-7.6,0-13.2-2.6-16.9-6.9v5.3h-17v-79.4
	h17v28c3.7-4.3,9.3-6.9,16.9-6.9C557.5,160.5,569.8,173.5,569.8,190.4z M552.7,190.4c0-8.5-5.7-13.8-13.5-13.8s-13.5,5.3-13.5,13.8
	c0,8.5,5.7,13.8,13.5,13.8S552.7,198.9,552.7,190.4z"/>
</svg>
